<mxfile host="65bd71144e">
    <diagram id="17gC5o32a8k67tNS2H_X" name="Page-1">
        <mxGraphModel dx="575" dy="1776" grid="1" gridSize="10" guides="1" tooltips="1" connect="1" arrows="1" fold="1" page="1" pageScale="1" pageWidth="827" pageHeight="1169" math="0" shadow="0">
            <root>
                <mxCell id="0"/>
                <mxCell id="1" parent="0"/>
                <mxCell id="2" value="void flashDigit(int num)" style="ellipse;whiteSpace=wrap;html=1;" parent="1" vertex="1">
                    <mxGeometry x="200" y="-1120" width="160" height="40" as="geometry"/>
                </mxCell>
                <mxCell id="4" value="Set ON and OFF times" style="rounded=1;whiteSpace=wrap;html=1;" vertex="1" parent="1">
                    <mxGeometry x="200" y="-960" width="160" height="40" as="geometry"/>
                </mxCell>
                <mxCell id="5" value="timed out 200ms ?" style="rhombus;whiteSpace=wrap;html=1;" vertex="1" parent="1">
                    <mxGeometry x="195" y="-1040" width="170" height="40" as="geometry"/>
                </mxCell>
                <mxCell id="6" value="done flashing the digit?" style="rhombus;whiteSpace=wrap;html=1;" vertex="1" parent="1">
                    <mxGeometry x="195" y="-880" width="170" height="40" as="geometry"/>
                </mxCell>
            </root>
        </mxGraphModel>
    </diagram>
</mxfile>